<svg xmlns="http://www.w3.org/2000/svg" viewBox="0 0 120 120" fill="currentColor">
  <!-- Tiling starfield pattern. Repeat as background-image. -->
  <!-- Large 4-point stars -->
  <path d="M20 20 L21 17 L22 20 L25 21 L22 22 L21 25 L20 22 L17 21 Z" opacity="0.8"/>
  <path d="M80 60 L81 57 L82 60 L85 61 L82 62 L81 65 L80 62 L77 61 Z" opacity="0.7"/>
  <path d="M50 100 L51 97 L52 100 L55 101 L52 102 L51 105 L50 102 L47 101 Z" opacity="0.75"/>
  <!-- Medium 4-point stars -->
  <path d="M95 15 L95.8 13 L96.6 15 L98.6 15.8 L96.6 16.6 L95.8 18.6 L95 16.6 L93 15.8 Z" opacity="0.6"/>
  <path d="M30 75 L30.8 73 L31.6 75 L33.6 75.8 L31.6 76.6 L30.8 78.6 L30 76.6 L28 75.8 Z" opacity="0.5"/>
  <path d="M65 35 L65.8 33 L66.6 35 L68.6 35.8 L66.6 36.6 L65.8 38.6 L65 36.6 L63 35.8 Z" opacity="0.55"/>
  <path d="M10 90 L10.8 88 L11.6 90 L13.6 90.8 L11.6 91.6 L10.8 93.6 L10 91.6 L8 90.8 Z"   opacity="0.5"/>
  <path d="M105 80 L105.8 78 L106.6 80 L108.6 80.8 L106.6 81.6 L105.8 83.6 L105 81.6 L103 80.8 Z" opacity="0.45"/>
  <!-- Small dot stars -->
  <circle cx="45"  cy="10"  r="1"   opacity="0.5"/>
  <circle cx="110" cy="40"  r="1"   opacity="0.4"/>
  <circle cx="70"  cy="85"  r="1.2" opacity="0.5"/>
  <circle cx="15"  cy="50"  r="0.8" opacity="0.4"/>
  <circle cx="90"  cy="110" r="1"   opacity="0.45"/>
  <circle cx="55"  cy="55"  r="0.8" opacity="0.35"/>
  <circle cx="5"   cy="5"   r="0.8" opacity="0.35"/>
  <circle cx="115" cy="115" r="0.8" opacity="0.35"/>
  <!-- Tiny sparkle accents -->
  <path d="M75 10 L75.5 8.5 L76 10 L77.5 10.5 L76 11 L75.5 12.5 L75 11 L73.5 10.5 Z" opacity="0.4"/>
  <path d="M35 45 L35.5 43.5 L36 45 L37.5 45.5 L36 46 L35.5 47.5 L35 46 L33.5 45.5 Z" opacity="0.35"/>
</svg>
